<svg xmlns="http://www.w3.org/2000/svg" viewBox="0 0 320 80" width="320" height="80">
  <title>Taddabur — Read the Quran. Understand the Tafsir. Know the Prophets.</title>
  <defs>
    <style>
      @import url('https://fonts.googleapis.com/css2?family=Cinzel:wght@700&amp;family=Amiri&amp;display=swap');
    </style>
  </defs>

  <!-- Icon mark (scaled to 70x70, centred in 80px tall strip) -->
  <g transform="translate(5, -10) scale(0.7)">
    <path d="M50 8 C37 8 26 17 24 29 C22 42 30 54 43 57
             C36 54 31 47 31 39 C31 27 39 17 50 15
             C51 15 52 14.5 53 14 C52 11 51 8 50 8 Z"
          fill="#E8BE6D"/>
    <path d="M53 14 C60 16 66 24 66 33 C66 44 59 53 49 56
             C52 55 55 53 57 50 C62 46 65 40 65 33
             C65 24 60 17 53 14 Z"
          fill="#C9963A" opacity="0.5"/>
    <path d="M68 17 L69.4 21.8 L74 22 L70.6 25 L71.8 30
             L68 27.5 L64.2 30 L65.4 25 L62 22 L66.6 21.8 Z"
          fill="#E8BE6D" opacity="0.9"/>
    <rect x="48.5" y="57" width="3" height="4" rx="1.5" fill="#C9963A" opacity="0.7"/>
    <rect x="48.5" y="62" width="3" height="4" rx="1.5" fill="#C9963A" opacity="0.6"/>
    <path d="M34 68 C36 63 42 66 50 65 C58 66 64 63 66 68 Z" fill="#E8BE6D" opacity="0.9"/>
    <circle cx="50" cy="65" r="2" fill="#E8BE6D" opacity="0.85"/>
    <path d="M36 68 L33 90 Q33 93 36 93 L64 93 Q67 93 67 90 L64 68 Z" fill="#C9963A" opacity="0.82"/>
    <line x1="43" y1="68" x2="40" y2="93" stroke="#0D3D22" stroke-width="0.8" opacity="0.4"/>
    <line x1="57" y1="68" x2="60" y2="93" stroke="#0D3D22" stroke-width="0.8" opacity="0.4"/>
    <rect x="33" y="78" width="34" height="3" fill="#9A6F2B" opacity="0.45"/>
    <path d="M43 69 L43 77 L57 77 L57 69 Z" fill="#FAF6EE" opacity="0.25"/>
    <path d="M43 81 L43 90 L57 90 L57 81 Z" fill="#FAF6EE" opacity="0.22"/>
    <ellipse cx="50" cy="80" rx="5" ry="6" fill="#FAF6EE" opacity="0.12"/>
    <path d="M33 93 L36 97 L64 97 L67 93 Z" fill="#9A6F2B" opacity="0.7"/>
  </g>

  <!-- Divider line -->
  <line x1="78" y1="18" x2="78" y2="62" stroke="#C9963A" stroke-width="0.8" opacity="0.35"/>

  <!-- Wordmark -->
  <text x="92" y="44"
        font-family="Cinzel, Georgia, serif"
        font-weight="700"
        font-size="26"
        letter-spacing="4"
        fill="#E8BE6D">TADDABUR</text>

  <!-- Arabic name -->
  <text x="92" y="61"
        font-family="Amiri, serif"
        font-size="13"
        fill="#E8BE6D"
        opacity="0.6">تدبر</text>
</svg>
